<svg xmlns="http://www.w3.org/2000/svg" viewBox="0 0 640 320">
  <path fill="#012169" d="M0 0h640v320H0z"/>
  <path fill="#FFF" d="M0 0h640v27.5l-55 55h133.3l-55 55h133.4l-55 55h133.3l-55 55H640v27.6H0V320h55V264.5l55-55H66.7l55-55H55l55-55H0V27.6z"/>
  <path fill="#C8102E" d="M0 0h640v20H0zM0 40h640v20H0zM0 80h640v20H0zM0 120h640v20H0zM0 160h640v20H0zM0 200h640v20H0zM0 240h640v20H0zM0 280h640v20H0zM0 300h640v20H0z"/>
  <path fill="#C8102E" d="M245 0v320h150V0zM0 105v110h640V105z"/>
  <path fill="#FFF" d="M275 0v320h90V0zM0 135v50h640v-50z"/>
</svg>